HIERARCHY
ROOT Hips
{
	OFFSET 0.000000 0.000000 0.000000 
	CHANNELS 6 Xposition Yposition Zposition Yrotation Zrotation Xrotation 
	JOINT Lumbar
	{
		OFFSET 0.000000 0.000000 0.000000 
		CHANNELS 3 Zrotation Xrotation Yrotation
		JOINT Neck
		{
			OFFSET 0.000000 0.445665 0.000000 
			CHANNELS 3 Zrotation Xrotation Yrotation
			End Site
			{
				OFFSET 0.000000 0.227535 0.000000 
			}
		}
		JOINT RightShoulder
		{
			OFFSET 0.019635 0.377685 0.194865 
			CHANNELS 3 Zrotation Xrotation Yrotation
			JOINT RightElbow
			{
				OFFSET 0.000000 -0.243375 0.000000 
				CHANNELS 2 Zrotation Yrotation
				JOINT RightWrist
				{
					OFFSET 0.000000 -0.264825 0.000000 
					CHANNELS 2 Zrotation Xrotation
					End Site
					{
						OFFSET 0.006600 -0.176220 0.000990 
					}
				}
			}
		}
		JOINT LeftShoulder
		{
			OFFSET 0.019635 0.377685 -0.194865 
			CHANNELS 3 Zrotation Xrotation Yrotation
			JOINT LeftElbow
			{
				OFFSET 0.000000 -0.243375 0.000000 
				CHANNELS 2 Zrotation Yrotation
				JOINT LeftWrist
				{
					OFFSET 0.000000 -0.264825 0.000000 
					CHANNELS 2 Zrotation Xrotation
					End Site
					{
						OFFSET 0.006600 -0.176220 -0.000990 
					}
				}
			}
		}
	}
	JOINT RightHip
	{
		OFFSET 0.052140 -0.069960 0.075570 
		CHANNELS 3 Zrotation Xrotation Yrotation
		JOINT RightKnee
		{
			OFFSET 0.000000 -0.402270 0.000000 
			CHANNELS 1 Zrotation
			JOINT RightAnkle
			{
				OFFSET 0.000000 -0.404085 0.000000 
				CHANNELS 3 Zrotation Xrotation Yrotation
				End Site
				{
					OFFSET 0.204105 -0.089430 0.008415 
				}
			}
		}
	}
	JOINT LeftHip
	{
		OFFSET 0.052140 -0.069960 -0.075570 
		CHANNELS 3 Zrotation Xrotation Yrotation
		JOINT LeftKnee
		{
			OFFSET 0.000000 -0.402270 0.000000 
			CHANNELS 1 Zrotation
			JOINT LeftAnkle
			{
				OFFSET 0.000000 -0.404085 0.000000 
				CHANNELS 3 Zrotation Xrotation Yrotation
				End Site
				{
					OFFSET 0.204105 -0.089430 -0.008415 
				}
			}
		}
	}
}
MOTION
Frames: 25
Frame Time: 0.02
0.0001 2e-05 8e-05 -179.89962 -36.48294 -3.42153 44.39164 2.52983 -4.47714 -10.55517 -1.84065 -1.12166 92.93968 -91.7466 -87.12907 5.78711 65.99902 -13.23209 2.26632 57.96522 96.68786 -55.63409 5.78696 -96.10194 10.45412 -0.95847 40.76253 -4.68289 -4.63136 -22.32097 -6.64696 -2.17324 -3.30146 45.43914 11.03691 3.66443 -27.63064 -6.59226 1.13009 2.77394
0 0 -2e-05 -179.92954 -36.46927 -3.42767 44.38752 2.52621 -4.47273 -10.5933 -1.83479 -1.12247 93.24197 -91.75675 -87.12923 5.78711 66.00605 -13.21233 2.22546 58.11285 96.69444 -55.63409 5.78696 -96.11397 10.45267 -0.98186 40.73456 -4.74665 -5.01214 -22.31929 -6.64765 -2.13766 -3.28163 45.41187 11.00849 3.50648 -27.62809 -6.58658 1.14175 2.78145
-0.0001 -1e-05 -0.00012 -179.95937 -36.45562 -3.43379 44.38341 2.5226 -4.46836 -10.63134 -1.82896 -1.12327 93.54355 -91.76689 -87.1294 5.78711 66.0131 -13.19262 2.18469 58.26069 96.70098 -55.63409 5.78696 -96.12608 10.45131 -1.00528 40.70664 -4.81024 -5.39184 -22.31762 -6.64833 -2.10219 -3.26186 45.38465 10.98017 3.34908 -27.62556 -6.58092 1.15335 2.78893
-0.00021 -2e-05 -0.00022 -179.98921 -36.44199 -3.4399 44.3793 2.51899 -4.46396 -10.66936 -1.82312 -1.12407 93.84493 -91.77701 -87.12956 5.78711 66.02012 -13.17293 2.14396 58.40798 96.70754 -55.63409 5.78696 -96.1381 10.44988 -1.02862 40.67875 -4.8738 -5.77147 -22.31594 -6.64902 -2.06672 -3.24209 45.35746 10.95184 3.19162 -27.62302 -6.57526 1.16497 2.79641
-0.00031 -3e-05 -0.00031 -180.01913 -36.42834 -3.44604 44.3752 2.51536 -4.45953 -10.70743 -1.81726 -1.12488 94.14697 -91.78714 -87.12972 5.78711 66.02712 -13.1532 2.10314 58.5548 96.71414 -55.63409 5.78696 -96.14999 10.44832 -1.05188 40.65082 -4.93754 -6.15212 -22.31427 -6.6497 -2.03116 -3.22226 45.33023 10.9234 3.03358 -27.62048 -6.56958 1.17663 2.80392
-0.00041 -5e-05 -0.00041 -180.04877 -36.4147 -3.45211 44.37106 2.51179 -4.45527 -10.74542 -1.81149 -1.12568 94.44761 -91.79727 -87.12988 5.78711 66.03427 -13.13354 2.06247 58.70474 96.72056 -55.63409 5.78696 -96.16256 10.4474 -1.07566 40.62295 -5.00079 -6.52978 -22.31259 -6.65037 -1.99587 -3.2026 45.30306 10.89533 2.87752 -27.61796 -6.56396 1.18812 2.81133
-0.00052 -6e-05 -0.00051 -180.07895 -36.40105 -3.45831 44.36701 2.50811 -4.45067 -10.78354 -1.80554 -1.12649 94.75061 -91.8074 -87.13005 5.78711 66.0411 -13.11376 2.02156 58.84829 96.72734 -55.63409 5.78696 -96.17376 10.4452 -1.09836 40.59498 -5.06496 -6.91311 -22.31091 -6.65108 -1.96007 -3.18262 45.27578 10.86655 2.71767 -27.6154 -6.55822 1.19994 2.81894
-0.00062 -7e-05 -0.00061 -180.10862 -36.3874 -3.46439 44.36287 2.50453 -4.44638 -10.82155 -1.79975 -1.12729 95.05166 -91.81753 -87.13021 5.78711 66.04823 -13.09409 1.98084 58.99765 96.73377 -55.63409 5.78696 -96.18619 10.44416 -1.12205 40.5671 -5.12826 -7.29108 -22.30924 -6.65175 -1.92475 -3.16294 45.24861 10.83842 2.56129 -27.61288 -6.55259 1.21146 2.82637
-0.00072 -9e-05 -0.0007 -180.13773 -36.3738 -3.47033 44.35864 2.50107 -4.44246 -10.85938 -1.79417 -1.12809 95.34962 -91.82766 -87.13037 5.78711 66.05572 -13.07455 1.94048 59.15462 96.73985 -55.63409 5.78696 -96.20029 10.44462 -1.147 40.53932 -5.19062 -7.66319 -22.30756 -6.65239 -1.88995 -3.1436 45.22155 10.81112 2.40921 -27.61039 -6.54712 1.22262 2.83354
-0.00083 -0.0001 -0.00081 -180.17023 -36.36004 -3.47711 44.35496 2.49694 -4.43641 -10.89814 -1.78743 -1.1289 95.66322 -91.83777 -87.13054 5.78711 66.06113 -13.05426 1.89841 59.26934 96.74818 -55.63409 5.78696 -96.20526 10.4367 -1.16488 40.51093 -5.25873 -8.0711 -22.30589 -6.65323 -1.85194 -3.12222 45.19379 10.77914 2.23257 -27.60767 -6.54079 1.23586 2.84211
-0.00093 -0.00011 -0.00089 -180.19546 -36.34657 -3.48208 44.35011 2.49419 -4.43486 -10.93498 -1.7831 -1.12969 95.94515 -91.84793 -87.13069 5.78711 66.07092 -13.03552 1.85974 59.47214 96.75161 -55.63409 5.78695 -96.22918 10.4463 -1.19753 40.48385 -5.31449 -8.4021 -22.30422 -6.65364 -1.82084 -3.10521 45.16753 10.75697 2.1076 -27.60546 -6.53626 1.24472 2.84776
-0.00102 -0.00012 -0.0009 -180.20167 -36.33405 -3.48221 44.34224 2.49544 -4.44576 -10.96616 -1.78566 -1.1304 96.12895 -91.85811 -87.13081 5.78711 66.09309 -13.02125 1.832 59.92802 96.74285 -55.63409 5.78695 -96.30833 10.50562 -1.27237 40.46027 -5.33812 -8.53202 -22.30234 -6.65283 -1.8078 -3.09974 45.14524 10.76256 2.12708 -27.60457 -6.53679 1.2414 2.84512
-0.00111 -0.00014 -0.00089 -180.20042 -36.32177 -3.48049 44.33318 2.49803 -4.46116 -10.9955 -1.79058 -1.13107 96.28335 -91.8683 -87.13091 5.78711 66.11964 -13.00843 1.80736 60.47017 96.72893 -55.63409 5.78695 -96.40589 10.58218 -1.36172 40.43803 -5.34913 -8.58333 -22.3005 -6.65158 -1.80182 -3.09873 45.12447 10.77784 2.19801 -27.6042 -6.53912 1.23371 2.83958
-0.00119 -0.00015 -0.00088 -180.20196 -36.30925 -3.47955 44.32455 2.49988 -4.47447 -11.02597 -1.79421 -1.13177 96.45812 -91.87859 -87.13103 5.78711 66.14392 -12.99488 1.78025 60.96551 96.71658 -55.63409 5.78695 -96.49295 10.64984 -1.44336 40.41527 -5.36464 -8.66348 -22.29876 -6.65053 -1.79323 -3.09601 45.10311 10.78812 2.24359 -27.60362 -6.54056 1.22815 2.83554
-0.00128 -0.00016 -0.00089 -180.20598 -36.29732 -3.47887 44.31636 2.50228 -4.48804 -11.0552 -1.79876 -1.13245 96.60195 -91.88862 -87.13113 5.78711 66.16926 -12.98188 1.75768 61.49348 96.70754 -55.6341 5.78694 -96.58912 10.72224 -1.52981 40.39217 -5.38494 -8.77055 -22.29651 -6.64949 -1.78227 -3.09205 45.08134 10.80093 2.29735 -27.60294 -6.5423 1.222 2.83074
-0.00136 -0.00017 -0.00087 -180.20309 -36.2842 -3.4772 44.30699 2.50383 -4.50207 -11.08658 -1.80194 -1.13314 96.80489 -91.89896 -87.13125 5.78711 66.19361 -12.96778 1.72631 61.97352 96.69031 -55.63409 5.78694 -96.67059 10.78856 -1.6096 40.37002 -5.39276 -8.80539 -22.29534 -6.64834 -1.77773 -3.0916 45.06076 10.81081 2.34653 -27.60259 -6.54384 1.21604 2.82681
-0.00141 -0.00018 -0.00082 -180.1829 -36.26785 -3.47333 44.29449 2.50288 -4.51681 -11.12422 -1.80077 -1.13383 97.16475 -91.91212 -87.13145 5.78711 66.21342 -12.95286 1.67062 62.30351 96.65226 -55.63402 5.78698 -96.70787 10.83652 -1.66792 40.3509 -5.36481 -8.63862 -22.29716 -6.64686 -1.79094 -3.10084 45.04333 10.80978 2.36789 -27.60317 -6.54436 1.21178 2.8262
-0.00144 -0.00018 -0.00075 -180.15605 -36.25028 -3.46852 44.28086 2.50099 -4.53174 -11.16409 -1.79811 -1.13452 97.58779 -91.92518 -87.13168 5.78711 66.23289 -12.93632 1.60596 62.58191 96.60602 -55.63394 5.78702 -96.72963 10.87737 -1.71891 40.33256 -5.32547 -8.40546 -22.30005 -6.64531 -1.81007 -3.11328 45.02698 10.80553 2.38326 -27.60406 -6.54463 1.20785 2.82653
-0.00148 -0.00019 -0.00069 -180.13232 -36.23322 -3.46407 44.26787 2.49941 -4.54624 -11.203 -1.79615 -1.13521 97.99063 -91.93707 -87.1319 5.78712 66.25213 -12.9188 1.54469 62.88132 96.5632 -55.63386 5.78706 -96.75779 10.91959 -1.773 40.31339 -5.29435 -8.21736 -22.30242 -6.64388 -1.82529 -3.12352 45.00999 10.80304 2.40314 -27.60475 -6.54506 1.20373 2.8263
-0.00152 -0.0002 -0.00064 -180.10793 -36.21642 -3.45979 44.25436 2.49837 -4.56239 -11.24166 -1.79428 -1.1359 98.35596 -91.95427 -87.13212 5.78712 66.27037 -12.90845 1.4858 63.19288 96.52155 -55.63377 5.78711 -96.78902 10.96981 -1.82873 40.29626 -5.25032 -7.96554 -22.30493 -6.64205 -1.84576 -3.13699 44.99371 10.79967 2.41754 -27.60568 -6.54536 1.19964 2.82652
-0.00155 -0.0002 -0.00057 -180.08345 -36.19872 -3.455 44.24163 2.49596 -4.57503 -11.28135 -1.79173 -1.13658 98.8155 -91.96017 -87.13232 5.78712 66.29401 -12.88293 1.42058 63.46717 96.47547 -55.63371 5.78714 -96.81032 11.00202 -1.87891 40.27505 -5.23014 -7.82935 -22.3074 -6.64104 -1.85679 -3.14454 44.97614 10.79719 2.44093 -27.6062 -6.54583 1.19562 2.82608
-0.00158 -0.0002 -0.00047 -180.06014 -36.1794 -3.44856 44.23171 2.48991 -4.57847 -11.32385 -1.78838 -1.13726 99.5154 -91.93661 -87.13247 5.78712 66.30191 -12.81465 1.33302 63.64097 96.42005 -55.6337 5.78714 -96.80537 10.98184 -1.91725 40.24249 -5.28304 -8.04937 -22.30972 -6.64247 -1.83866 -3.13387 44.95528 10.79833 2.4935 -27.60539 -6.5469 1.19168 2.8235
-0.0016 -0.0002 -0.00035 -180.03706 -36.15912 -3.44172 44.22256 2.48251 -4.57824 -11.36725 -1.78422 -1.13793 100.30986 -91.90125 -87.13244 5.78712 66.32011 -12.73145 1.24049 63.78209 96.36021 -55.63371 5.78714 -96.7919 10.94495 -1.94992 40.20579 -5.35962 -8.38471 -22.31193 -6.64469 -1.81109 -3.11729 44.93299 10.8004 2.55477 -27.60417 -6.54814 1.18781 2.82024
-0.00162 -0.00019 -0.00024 -180.01407 -36.13894 -3.43538 44.21279 2.47581 -4.57933 -11.40987 -1.77995 -1.13859 101.06273 -91.8703 -87.1327 5.78711 66.3548 -12.6558 1.15515 63.94241 96.30193 -55.63371 5.78714 -96.78325 10.91793 -1.98392 40.17094 -5.42247 -8.65394 -22.31402 -6.64643 -1.78889 -3.10412 44.91104 10.8017 2.60954 -27.60322 -6.54924 1.18398 2.81737
-0.00165 -0.00019 -0.00014 -179.99001 -36.12016 -3.42768 44.20404 2.46877 -4.58193 -11.45402 -1.77771 -1.1393 101.8079 -91.84382 -87.13274 5.78713 66.30361 -12.57656 1.04962 64.07612 96.24562 -55.63371 5.78714 -96.76781 10.87923 -2.0227 40.13625 -5.49727 -8.97814 -22.31681 -6.64864 -1.76236 -3.08806 44.89048 10.80416 2.67378 -27.60195 -6.55056 1.17994 2.81421
